<svg width="40" height="40" viewBox="0 0 40 40" fill="none" xmlns="http://www.w3.org/2000/svg">
<path d="M24.9572 5.03188L26.5572 2.14521C26.5777 2.10822 26.5907 2.06756 26.5954 2.02556C26.6002 1.98355 26.5966 1.94102 26.5849 1.9004C26.5732 1.85977 26.5537 1.82185 26.5273 1.78879C26.501 1.75572 26.4684 1.72817 26.4314 1.70771C26.3944 1.68725 26.3538 1.67427 26.3118 1.66952C26.2698 1.66476 26.2272 1.66833 26.1866 1.68002C26.146 1.6917 26.108 1.71127 26.075 1.73762C26.0419 1.76396 26.0144 1.79655 25.9939 1.83354L24.3772 4.75021C22.9972 4.14503 21.5067 3.83257 19.9997 3.83257C18.4928 3.83257 17.0023 4.14503 15.6222 4.75021L14.0056 1.83354C13.9642 1.7584 13.8948 1.70275 13.8124 1.67884C13.73 1.65493 13.6416 1.66471 13.5664 1.70604C13.4913 1.74737 13.4356 1.81686 13.4117 1.89922C13.3878 1.98158 13.3976 2.07007 13.4389 2.14521L15.0389 5.03188C13.517 5.78329 12.2312 6.93895 11.3223 8.37233C10.4133 9.80571 9.9163 11.4615 9.88557 13.1585H30.1139C30.0829 11.4612 29.5853 9.80512 28.6758 8.37171C27.7662 6.9383 26.4797 5.78283 24.9572 5.03188ZM15.3322 9.45688C15.165 9.45688 15.0016 9.40728 14.8626 9.31435C14.7236 9.22143 14.6153 9.08936 14.5514 8.93486C14.4875 8.78036 14.4709 8.61037 14.5036 8.44641C14.5363 8.28245 14.617 8.13189 14.7353 8.01378C14.8537 7.89567 15.0044 7.81533 15.1684 7.78291C15.3324 7.75049 15.5024 7.76747 15.6568 7.83168C15.8111 7.89589 15.943 8.00445 16.0356 8.14363C16.1283 8.28281 16.1776 8.44635 16.1772 8.61354C16.1768 8.83736 16.0876 9.05186 15.9292 9.20997C15.7707 9.36808 15.5561 9.45688 15.3322 9.45688ZM24.6689 9.45688C24.5017 9.45688 24.3383 9.40728 24.1993 9.31435C24.0603 9.22143 23.952 9.08936 23.8881 8.93486C23.8242 8.78036 23.8075 8.61037 23.8403 8.44641C23.873 8.28245 23.9537 8.13189 24.072 8.01378C24.1903 7.89567 24.3411 7.81533 24.5051 7.78291C24.6691 7.75049 24.8391 7.76747 24.9934 7.83168C25.1478 7.89589 25.2797 8.00445 25.3723 8.14363C25.465 8.28281 25.5142 8.44635 25.5139 8.61354C25.5135 8.83736 25.4242 9.05186 25.2658 9.20997C25.1074 9.36808 24.8927 9.45688 24.6689 9.45688ZM9.88224 28.6185C9.8818 28.9403 9.94488 29.259 10.0679 29.5564C10.1909 29.8537 10.3713 30.1239 10.599 30.3513C10.8266 30.5788 11.0968 30.7591 11.3943 30.8819C11.6917 31.0047 12.0105 31.0675 12.3322 31.0669H13.9539V36.0669C13.9539 36.6683 14.1928 37.245 14.618 37.6702C15.0433 38.0955 15.62 38.3344 16.2214 38.3344C16.8228 38.3344 17.3995 38.0955 17.8248 37.6702C18.25 37.245 18.4889 36.6683 18.4889 36.0669V31.0669H21.5122V36.0669C21.5122 36.668 21.751 37.2446 22.1761 37.6697C22.6012 38.0947 23.1777 38.3335 23.7789 38.3335C24.3801 38.3335 24.9566 38.0947 25.3817 37.6697C25.8068 37.2446 26.0456 36.668 26.0456 36.0669V31.0669H27.6689C27.9903 31.0671 28.3085 31.004 28.6055 30.8811C28.9024 30.7582 29.1722 30.578 29.3995 30.3508C29.6267 30.1235 29.8069 29.8537 29.9298 29.5568C30.0527 29.2598 30.1158 28.9416 30.1156 28.6202V13.9585H9.88224V28.6185ZM6.77057 13.5685C6.47277 13.5685 6.17789 13.6272 5.90277 13.7412C5.62766 13.8553 5.37771 14.0224 5.16721 14.233C4.95671 14.4437 4.78978 14.6938 4.67597 14.9689C4.56216 15.2441 4.50369 15.5391 4.50391 15.8369V25.2852C4.50391 25.5829 4.56254 25.8776 4.67645 26.1526C4.79036 26.4276 4.95732 26.6775 5.1678 26.888C5.37828 27.0985 5.62815 27.2654 5.90316 27.3793C6.17816 27.4932 6.47291 27.5519 6.77057 27.5519C7.06824 27.5519 7.36298 27.4932 7.63799 27.3793C7.91299 27.2654 8.16287 27.0985 8.37335 26.888C8.58383 26.6775 8.75079 26.4276 8.8647 26.1526C8.97861 25.8776 9.03724 25.5829 9.03724 25.2852V15.8369C9.03724 15.5392 8.97861 15.2445 8.8647 14.9695C8.75079 14.6945 8.58383 14.4446 8.37335 14.2341C8.16287 14.0236 7.91299 13.8567 7.63799 13.7427C7.36298 13.6288 7.06824 13.5702 6.77057 13.5702M33.2239 13.5702C32.9261 13.5702 32.6312 13.6289 32.3561 13.7429C32.081 13.8569 31.831 14.024 31.6205 14.2347C31.41 14.4453 31.2431 14.6954 31.1293 14.9706C31.0155 15.2458 30.957 15.5407 30.9572 15.8385V25.2869C30.9572 25.5845 31.0159 25.8793 31.1298 26.1543C31.2437 26.4293 31.4107 26.6792 31.6211 26.8897C31.8316 27.1001 32.0815 27.2671 32.3565 27.381C32.6315 27.4949 32.9262 27.5535 33.2239 27.5535C33.5216 27.5535 33.8163 27.4949 34.0913 27.381C34.3663 27.2671 34.6162 27.1001 34.8267 26.8897C35.0372 26.6792 35.2041 26.4293 35.318 26.1543C35.4319 25.8793 35.4906 25.5845 35.4906 25.2869V15.8369C35.4906 15.2357 35.2518 14.6592 34.8267 14.2341C34.4016 13.809 33.8251 13.5702 33.2239 13.5702Z" fill="#FBBC05"/>
</svg>
