<svg width="15" height="12" viewBox="0 0 15 12" fill="none" xmlns="http://www.w3.org/2000/svg">
<path d="M7.683 0C8.0835 0.00225 9.0855 0.012 10.1505 0.05475L10.5285 0.0712498C11.6003 0.1215 12.6713 0.2085 13.203 0.35625C13.9118 0.55575 14.4683 1.13625 14.6565 1.87275C14.9565 3.04275 14.994 5.32425 14.9985 5.877L14.9993 5.991V6.1215C14.994 6.67425 14.9565 8.9565 14.6565 10.1257C14.466 10.8645 13.9088 11.4458 13.203 11.6423C12.6713 11.79 11.6003 11.877 10.5285 11.9272L10.1505 11.9445C9.0855 11.9865 8.0835 11.997 7.683 11.9985L7.50675 11.9993H7.3155C6.468 11.994 2.9235 11.9558 1.7955 11.6423C1.0875 11.4428 0.53025 10.8622 0.342 10.1257C0.0420001 8.95575 0.0045 6.67425 0 6.1215V5.877C0.0045 5.32425 0.0420001 3.042 0.342 1.87275C0.5325 1.134 1.08975 0.55275 1.79625 0.357C2.9235 0.0427499 6.46875 0.0045 7.31625 0H7.683ZM5.99925 3.375V8.625L10.4993 6L5.99925 3.375Z" fill="#E00000"/>
</svg>
