<svg width="24" height="24" viewBox="0 0 24 24" fill="none" xmlns="http://www.w3.org/2000/svg">
<g clip-path="url(#clip0_7465_47004)">
<path d="M11.94 12.1862C17.3267 12.1862 21.7133 11.0262 22 9.55953V5.7262C21.7133 7.19286 17.3333 8.35286 11.94 8.35286C9.31245 8.40365 6.69216 8.05982 4.16667 7.33286V5.99953C6.69285 6.72198 9.31312 7.06131 11.94 7.0062C17.3333 7.01953 21.68 5.85953 22 4.4062C21.8667 2.13286 15.68 1.51953 12 1.51953C8.32 1.51953 2 2.13953 2 4.47286V19.5262C2 21.8529 8.28667 22.4795 12 22.4795C15.7133 22.4795 22 21.8595 22 19.5262V16.0595C21.7133 17.5195 17.3333 18.6662 11.94 18.6662C9.31413 18.7278 6.69387 18.3952 4.16667 17.6795V16.3462C6.69387 17.0619 9.31413 17.3945 11.94 17.3329C17.3333 17.3329 21.7133 16.1862 22 14.7262V10.8929C21.7133 12.3595 17.3333 13.5195 11.94 13.5195C9.31312 13.5746 6.69285 13.2353 4.16667 12.5129V11.1795C6.69285 11.902 9.31312 12.2413 11.94 12.1862Z" fill="white"/>
</g>
<defs>
<clipPath id="clip0_7465_47004">
<rect width="24" height="24" fill="white"/>
</clipPath>
</defs>
</svg>
